<svg width="15" height="16" viewBox="0 0 15 16" fill="none" xmlns="http://www.w3.org/2000/svg">
<path d="M14.88 7.04551V14.9038C14.88 15.1993 14.642 15.4391 14.3486 15.4391H7.97187C7.67852 15.4391 7.44047 15.1993 7.44047 14.9038V13.4403C7.46952 11.6464 7.6579 9.92804 8.0534 9.14627C8.29051 8.67608 8.68133 8.42021 9.13025 8.28331C9.97842 8.0265 11.4667 8.20211 12.0984 8.1719C12.0984 8.1719 14.0065 8.24837 14.0065 7.15976C14.0065 6.28357 13.1537 6.3525 13.1537 6.3525C12.2137 6.37704 11.4976 6.31284 11.0337 6.12873C10.2568 5.82093 10.2305 5.25632 10.2277 5.06749C10.1893 2.88648 6.99717 2.62494 4.18462 3.16595C1.10965 3.7551 4.21836 8.1955 4.21836 14.123V14.9142C4.21274 15.205 3.97937 15.4401 3.68884 15.4401H0.531395C0.23805 15.4401 0 15.2002 0 14.9047V1.3135C0 1.01798 0.23805 0.77816 0.531395 0.77816H3.49952C3.79287 0.77816 4.03092 1.01798 4.03092 1.3135C4.03092 1.75254 4.52108 1.99707 4.87534 1.74121C5.94282 0.970769 7.31301 0.560059 8.84628 0.560059C12.2811 0.560059 14.8781 2.57679 14.8781 7.04551H14.88ZM9.17805 5.45082C9.17805 4.81823 8.66914 4.30555 8.04122 4.30555C7.41329 4.30555 6.90439 4.81823 6.90439 5.45082C6.90439 6.08341 7.41329 6.59609 8.04122 6.59609C8.66914 6.59609 9.17805 6.08341 9.17805 5.45082Z" fill="white"/>
</svg>
